#!OML:ASF I:\Actors\actors\Patient Classification 2\Patient 1\Session 1\actor1.ASF
:FULLY-SPECIFIED
:DEGREES
1049
root -0.899541 18.6094 5.87026 -4.43848 -1.03103 -2.04199
lowerback 4.47385 2.52441 7.09396
upperback 1.78973 3.6823 3.16049
thorax -0.418645 1.85711 -0.872794
lowerneck -5.30611 -4.52312 1.03326
upperneck 21.6616 -5.73805 -3.14229
head 7.37771 -2.92384 -1.64061
rclavicle 1.07654e-014 2.46493e-014
rhumerus 23.91 12.718 -74.1095
rradius 59.3239
rwrist -49.2819
rhand -4.89304 -67.2552
rfingers 7.12502
rthumb 20.8962 -263.85
lclavicle 1.07654e-014 2.46493e-014
lhumerus -44.3899 -3.56119 92.1393
lradius 52.813
lwrist 9.80053
lhand -7.85563 -21.3369
lfingers 7.12502
lthumb 18.0477 7.84574
rfemur 14.2323 3.85375 17.9376
rtibia 3.97569e-014
rfoot -19.5704 -12.7725
rtoes -5.314
lfemur 0.153323 -6.21119 -12.8168
ltibia 22.9651
lfoot -21.1723 11.209
ltoes -57.9057
1050
root -0.898416 18.6095 5.8697 -4.45052 -1.01633 -2.05267
lowerback 4.49525 2.50941 7.10412
upperback 1.78576 3.66516 3.15774
thorax -0.43501 1.84806 -0.881829
lowerneck -5.29996 -4.51748 1.05151
upperneck 21.6302 -5.72586 -3.17653
head 7.36477 -2.91986 -1.65281
rclavicle -6.33626e-016 3.57812e-014
rhumerus 23.8822 12.7549 -74.1117
rradius 59.3857
rwrist -49.3009
rhand -4.86326 -67.1934
rfingers 7.12502
rthumb 20.9248 -263.915
lclavicle -6.33626e-016 3.57812e-014
lhumerus -44.41 -3.52734 92.1245
lradius 52.8101
lwrist 9.80233
lhand -7.8739 -21.328
lfingers 7.12502
lthumb 18.0302 7.85633
rfemur 14.2492 3.83927 17.9451
rtibia 1.27222e-014
rfoot -19.5944 -12.7476
rtoes -5.18946
lfemur 0.160191 -6.15848 -12.7989
ltibia 22.9725
lfoot -21.1385 11.1816
ltoes -57.9513
1051
root -0.897111 18.6095 5.86862 -4.46064 -1.02574 -2.07992
lowerback 4.51401 2.50831 7.15032
upperback 1.79139 3.667 3.15652
thorax -0.43643 1.84919 -0.909282
lowerneck -5.31115 -4.52499 1.03402
upperneck 21.609 -5.73941 -3.15112
head 7.36097 -2.92564 -1.64256
rclavicle 2.73888e-014 4.45278e-014
rhumerus 23.9001 12.7481 -74.1226
rradius 59.4098
rwrist -49.3071
rhand -4.76326 -67.1722
rfingers 7.12502
rthumb 21.0209 -263.947
lclavicle 2.73888e-014 4.45278e-014
lhumerus -44.416 -3.5264 92.128
lradius 52.8005
lwrist 9.83493
lhand -7.87802 -21.3309
lfingers 7.12502
lthumb 18.0262 7.85378
rfemur 14.2561 3.8469 17.9738
rtibia -1.59028e-014
rfoot -19.5922 -12.733
rtoes -5.28228
lfemur 0.166938 -6.11597 -12.7642
ltibia 22.981
lfoot -21.1391 11.1669
ltoes -57.9799
1052
root -0.896357 18.6093 5.86778 -4.4588 -1.05698 -2.09913
lowerback 4.51204 2.52109 7.16551
upperback 1.79979 3.68398 3.17527
thorax -0.425731 1.85809 -0.898577
lowerneck -5.39055 -4.53604 0.973084
upperneck 21.6686 -5.75909 -3.09305
head 7.39839 -2.93451 -1.61911
rclavicle 4.01297e-015 -3.18055e-015
rhumerus 23.9088 12.744 -74.0818
rradius 59.4369
rwrist -49.3369
rhand -4.65949 -67.1577
rfingers 7.12502
rthumb 21.1205 -263.973
lclavicle 4.01297e-015 -3.18055e-015
lhumerus -44.3908 -3.46862 92.1502
lradius 52.7493
lwrist 9.79707
lhand -7.81128 -21.4599
lfingers 7.12502
lthumb 18.0904 7.7188
rfemur 14.2433 3.87645 17.9954
rtibia -9.54166e-015
rfoot -19.576 -12.7438
rtoes -5.41457
lfemur 0.163057 -6.12964 -12.7465
ltibia 22.9881
lfoot -21.1658 11.1765
ltoes -57.9406
1053
root -0.896485 18.6092 5.86761 -4.47231 -1.08162 -2.10106
lowerback 4.50622 2.52754 7.12099
upperback 1.81464 3.68954 3.21103
thorax -0.412028 1.86126 -0.836841
lowerneck -5.46829 -4.53072 0.931949
upperneck 21.7199 -5.74883 -3.0832
head 7.43109 -2.93185 -1.612
rclavicle -1.59587e-014 -6.75868e-014
rhumerus 23.9014 12.7737 -74.018
rradius 59.4705
rwrist -49.3731
rhand -4.65989 -67.1997
rfingers 7.12502
rthumb 21.1202 -263.931
lclavicle -1.59587e-014 -6.75868e-014
lhumerus -44.3851 -3.39826 92.1873
lradius 52.7223
lwrist 9.75755
lhand -7.71497 -21.6167
lfingers 7.12502
lthumb 18.1831 7.55343
rfemur 14.2479 3.90105 18.0016
rtibia -4.45278e-014
rfoot -19.5507 -12.7847
rtoes -5.4853
lfemur 0.182755 -6.12059 -12.7442
ltibia 22.9841
lfoot -21.1612 11.1556
ltoes -57.8768
1054
root -0.896284 18.609 5.86682 -4.49364 -1.11267 -2.08743
lowerback 4.52271 2.52944 7.07878
upperback 1.82342 3.69155 3.22666
thorax -0.415845 1.86211 -0.798296
lowerneck -5.48417 -4.52489 0.917202
upperneck 21.7153 -5.73921 -3.08257
head 7.43315 -2.92846 -1.60902
rclavicle -3.60297e-016 4.77083e-015
rhumerus 23.9074 12.8057 -74.0001
rradius 59.4774
rwrist -49.3862
rhand -4.74943 -67.2591
rfingers 7.12502
rthumb 21.0341 -263.862
lclavicle -3.60297e-016 4.77083e-015
lhumerus -44.4301 -3.41519 92.2235
lradius 52.7606
lwrist 9.80795
lhand -7.69458 -21.6428
lfingers 7.12502
lthumb 18.2027 7.5255
rfemur 14.2591 3.9336 17.9928
rtibia 4.13472e-014
rfoot -19.5162 -12.8192
rtoes -5.66302
lfemur 0.219768 -6.11999 -12.7662
ltibia 22.9742
lfoot -21.1763 11.1744
ltoes -57.8549
